<?xml version="1.0" encoding="UTF-8"?>
<svg id="Capa_1" data-name="Capa 1" xmlns="http://www.w3.org/2000/svg" version="1.1" viewBox="0 0 141.62 106.95">
  <defs>
    <style>
      .cls-1 {
        fill: #1c4691;
      }

      .cls-1, .cls-2, .cls-3, .cls-4 {
        stroke-width: 0px;
      }

      .cls-2 {
        fill: none;
      }

      .cls-3 {
        fill: #0047ab;
      }

      .cls-4 {
        fill: #478bbe;
      }
    </style>
  </defs>
  <g>
    <g>
      <path class="cls-4" d="M0,89.84l2.56-2.52c.66.98,1.9,1.57,3.24,1.57.9,0,1.78-.33,1.78-.98,0-.82-1.63-1.54-3.2-2.24-2.02-.87-3.75-2.2-3.75-4.6,0-2.76,2.62-4.73,5.65-4.73,2.44,0,4.34,1.15,4.96,2.72l-2.45,2.36c-.48-.84-1.7-1.21-2.47-1.21-.87,0-1.5.45-1.5.99,0,.73,1.13.97,2.85,1.69,2.5,1.05,4.15,2.57,4.15,4.93,0,3.04-2.83,4.93-6.03,4.93-2.62,0-5.01-1.16-5.81-2.92Z"/>
      <path class="cls-4" d="M23.22,90.68h-5.96l-.81,1.86h-4.63l7.42-16.16h2.01l7.43,16.16h-4.64l-.8-1.86ZM21.88,87.58l-1.63-3.78-1.64,3.78h3.28Z"/>
      <path class="cls-4" d="M44.06,76.56v16.14h-1.35l-8.21-7.95v7.8h-4.24v-16.13h1.37l8.18,7.92v-7.78h4.25Z"/>
      <path class="cls-4" d="M63.25,90.68h-5.96l-.81,1.86h-4.63l7.42-16.16h2.01l7.43,16.16h-4.64l-.8-1.86ZM61.9,87.58l-1.63-3.78-1.64,3.78h3.28Z"/>
      <path class="cls-4" d="M84.08,76.56v16.14h-1.35l-8.21-7.95v7.8h-4.24v-16.13h1.37l8.18,7.92v-7.78h4.25Z"/>
      <path class="cls-4" d="M100.81,84.58c0,4.95-3.32,7.96-8.74,7.96h-5.21v-15.95h5.21c5.43-.03,8.74,3,8.74,7.99ZM96.56,84.57c0-2.51-1.74-4.03-4.6-4.03h-.97v8.01h1.01c2.83,0,4.56-1.51,4.56-3.98Z"/>
      <path class="cls-4" d="M111.41,92.54l-4.27-6.93v6.93h-4.24l-.02-15.96h6.06c3.45,0,5.91,2.33,5.91,5.19,0,1.99-1.2,3.65-2.76,4.37l4.28,6.41h-4.96ZM107.13,83.59h1.73c.9.02,1.72-.61,1.72-1.59s-.83-1.6-1.72-1.6h-1.73v3.2Z"/>
      <path class="cls-4" d="M122.09,80.52v2.23h5.07v3.54h-5.07v2.29h6.16v3.97h-10.35v-15.96h10.35v3.94h-6.16Z"/>
      <path class="cls-4" d="M129.77,89.84l2.56-2.52c.66.98,1.9,1.57,3.24,1.57.9,0,1.78-.33,1.78-.98,0-.82-1.63-1.54-3.2-2.24-2.02-.87-3.75-2.2-3.75-4.6,0-2.76,2.62-4.73,5.65-4.73,2.44,0,4.34,1.15,4.96,2.72l-2.45,2.36c-.48-.84-1.7-1.21-2.47-1.21-.87,0-1.5.45-1.5.99,0,.73,1.13.97,2.85,1.69,2.5,1.05,4.15,2.57,4.15,4.93,0,3.04-2.83,4.93-6.03,4.93-2.62,0-5.01-1.16-5.81-2.92Z"/>
    </g>
    <g>
      <path class="cls-1" d="M25.72,103.03c0,2.32-1.78,3.9-3.92,3.9-2.37,0-4.28-1.91-4.28-4.24s1.91-4.25,4.25-4.25c1.02,0,2.25.52,2.99,1.24l-.52.77c-.64-.64-1.65-1.08-2.48-1.08-1.74,0-3.29,1.45-3.29,3.32s1.46,3.3,3.37,3.3c1.62,0,2.89-1.08,2.89-2.54,0-.06,0-.12,0-.16h-2.96v-.84h3.93c.02.13.04.35.04.59Z"/>
      <path class="cls-1" d="M31.83,106.82l-2.31-3.22h-1.54v3.22h-.93v-8.26s2.43,0,2.43,0c1.53,0,2.78,1.18,2.78,2.64,0,1.07-.73,1.99-1.74,2.3l2.46,3.33h-1.15ZM29.51,102.81c.98,0,1.79-.75,1.79-1.64,0-.95-.82-1.69-1.79-1.69h-1.54v3.33h1.54Z"/>
      <path class="cls-1" d="M33.51,102.69c0-2.34,1.91-4.25,4.25-4.25s4.25,1.91,4.25,4.25-1.91,4.24-4.25,4.24-4.24-1.91-4.24-4.24ZM41.07,102.69c0-1.82-1.49-3.31-3.31-3.31s-3.3,1.49-3.3,3.31,1.48,3.3,3.3,3.3,3.31-1.48,3.31-3.3Z"/>
      <path class="cls-1" d="M42.89,102.69c0-2.32,1.93-4.25,4.25-4.25,1.06,0,2.09.5,2.84,1.25l-.54.73c-.59-.61-1.42-1.04-2.33-1.04-1.66,0-3.27,1.44-3.27,3.31s1.59,3.3,3.28,3.3c.93,0,1.73-.44,2.32-1.03l.54.75c-.69.68-1.62,1.22-2.83,1.22-2.3,0-4.25-1.89-4.25-4.24Z"/>
      <path class="cls-1" d="M52.05,99.47v2.62h3.4v.93h-3.4v2.87h3.92v.93h-4.85v-8.26h4.85v.92h-3.92Z"/>
      <path class="cls-1" d="M62.26,106.82l-2.31-3.22h-1.54v3.22h-.93v-8.26s2.43,0,2.43,0c1.53,0,2.78,1.18,2.78,2.64,0,1.07-.73,1.99-1.74,2.3l2.46,3.33h-1.15ZM59.94,102.81c.98,0,1.79-.75,1.79-1.64,0-.95-.82-1.69-1.79-1.69h-1.54v3.33h1.54Z"/>
      <path class="cls-1" d="M65.63,103.31l-2.92-4.75h1.05l2.34,3.71,2.34-3.71h1.05l-2.93,4.75v3.51h-.93v-3.51Z"/>
      <path class="cls-1" d="M80.48,106.89c-.56,0-1.32-.36-2.13-.93-.62.65-1.46,1-2.39,1-1.8,0-2.82-1.28-2.82-2.61,0-1.04.64-1.96,1.51-2.43-.3-.57-.49-1.11-.49-1.56,0-.98.87-1.96,2.06-1.96,1.08,0,1.93.82,2.04,1.85l-.91.16c-.05-.66-.54-1.14-1.15-1.14-.65,0-1.11.53-1.11,1.13,0,1.1,1.52,3.02,3.02,4.31.3-.53.49-1.21.52-2.01h.88c-.02,1.05-.26,1.92-.65,2.59.63.45,1.21.73,1.62.73v.88ZM77.6,105.37c-.94-.79-1.87-1.79-2.53-2.76-.71.44-1.04,1.07-1.04,1.68,0,.93.68,1.74,1.89,1.74.65,0,1.23-.23,1.68-.66Z"/>
      <path class="cls-1" d="M90.38,104.3c0,1.31-1.04,2.52-2.61,2.52h-3.06v-8.26h2.26c1.38,0,2.37.97,2.37,2.06,0,.9-.65,1.55-1.07,1.55,1.06,0,2.12.89,2.12,2.13ZM85.63,99.46v2.5h1.37c.9,0,1.45-.54,1.45-1.24s-.66-1.26-1.45-1.26h-1.38ZM89.46,104.24c0-.77-.73-1.45-1.83-1.44h-2.01v3.11h2.06c.94,0,1.78-.71,1.78-1.67Z"/>
      <path class="cls-1" d="M96.75,105.46h-4.51l-.6,1.36h-1.01l3.82-8.39h.1l3.82,8.39h-1.01l-.61-1.36ZM96.4,104.65l-1.89-4.25-1.9,4.25h3.79Z"/>
      <path class="cls-1" d="M99.38,98.56h.93v8.26h-.93v-8.26ZM100.44,102.66l3.23-4.11h1.1l-3.21,4.07,3.51,4.2h-1.15l-3.47-4.16Z"/>
      <path class="cls-1" d="M106.96,99.47v2.62h3.4v.93h-3.4v2.87h3.92v.93h-4.85v-8.26h4.85v.92h-3.92Z"/>
      <path class="cls-1" d="M117.16,106.82l-2.31-3.22h-1.54v3.22h-.93v-8.26s2.44,0,2.44,0c1.53,0,2.78,1.18,2.78,2.64,0,1.07-.73,1.99-1.74,2.3l2.46,3.33h-1.15ZM114.84,102.81c.98,0,1.79-.75,1.79-1.64,0-.95-.82-1.69-1.79-1.69h-1.54v3.33h1.54Z"/>
      <path class="cls-1" d="M120.54,103.31l-2.92-4.75h1.05l2.34,3.71,2.34-3.71h1.05l-2.93,4.75v3.51h-.93v-3.51Z"/>
    </g>
  </g>
  <g>
    <circle class="cls-2" cx="70.81" cy="37.59" r="37.59"/>
    <g>
      <path class="cls-3" d="M51.09,18.28c0,1.13.02,2.27,0,3.41-.23,9.61,7.14,18.48,17.17,19.68,1.19.14,2.39.15,3.58.25,3.02.26,5.56,1.48,7.59,3.71-.96,2.03-4.62,3.93-7.79,4.06-5.81.25-9.67-2.59-12.05-7.73h-8.16c1.77,6.99,5.77,11.89,12.4,14.42,6.59,2.51,12.84,1.42,18.83-2.53-.02,2-.44,3.71-1.31,5.29-2.48,4.53-6.4,6.62-11.49,6.43-4.82-.18-9.32-1.53-13.47-4.05-10.58-6.41-15.63-19.4-12.16-31.27,1.28-4.37,3.47-8.21,6.63-11.49.09-.09.2-.15.23-.18Z"/>
      <path class="cls-4" d="M62.12,29.68c4.58-5.53,15.61-5.96,19.96,3.86h7.91c-.64-5.68-5.66-12.1-12.16-14.44-6.63-2.39-12.84-1.45-18.76,2.5-.2-1.14.06-2.1.33-3.04,1.53-5.28,6.29-8.79,11.78-8.66,4.49.11,8.78,1.11,12.7,3.31,8.11,4.55,13.01,11.41,14.29,20.65,1.18,8.53-1.3,16.01-6.99,22.45-.21.24-.33.55-.49.83-.11-.08-.22-.16-.33-.24.04-.63.05-1.25.12-1.88.94-9.29-5.41-19.07-16.13-21.07-1.35-.25-2.75-.26-4.12-.34-2.92-.17-5.44-1.25-7.56-3.26-.19-.18-.34-.41-.56-.67Z"/>
    </g>
  </g>
</svg>